<svg xmlns="http://www.w3.org/2000/svg" version="1.1" xmlns:xlink="http://www.w3.org/1999/xlink" width="512" height="508.186"><svg id="SvgjsSvg1126" data-name="Layer 1" xmlns="http://www.w3.org/2000/svg" viewBox="0 0 512 508.186">
  <path d="M332.803,289.05l-.002,201.218c0,4.462-2.948,8.409-7.242,9.619-10.4,2.93-21.069,5.219-31.961,6.822-6.024.887-11.429-3.805-11.436-9.894l-.549-486.792c-.007-6.076,5.368-10.79,11.381-9.92,123.855,17.927,219.006,124.525,219.006,253.347,0,5.434-.169,10.829-.503,16.18-.33,5.288-4.691,9.421-9.989,9.421h-158.704c-5.523,0-10,4.476-10,9.999ZM457.386,216.015c-11.835-64.075-53.497-117.693-110.048-145.919-6.678-3.333-14.535,1.453-14.535,8.916l-.003,138.837c0,5.523,4.477,10,10,10h104.749c6.257,0,10.974-5.681,9.838-11.834Z" fill="#ccc"></path>
  <path d="M75.255,207.597c-3.402-9.443-17.009-8.541-19.185,1.257-3.188,14.356-4.869,29.28-4.869,44.596,0,51.937,19.333,99.359,51.196,135.461l1.913,2.167c3.503,3.967,3.309,9.976-.442,13.708l-22.12,22.008c-4.025,4.005-10.583,3.867-14.422-.317C25.518,380.914,0,320.162,0,253.451c0-65.695,24.745-125.61,65.424-170.933,5.055-5.632,14.321-3.714,16.826,3.427l77.51,220.911c3.726,10.619,19.436,7.943,19.436-3.311l.003-286.912c0-4.463,2.949-8.41,7.245-9.62,10.584-2.981,21.446-5.299,32.538-6.906,6.023-.872,11.419,3.822,11.418,9.908v486.871c0,6.084-5.392,10.78-11.413,9.908-11.655-1.688-23.056-4.161-34.148-7.364-3.096-.894-5.584-3.205-6.676-6.236L75.255,207.597Z" fill="#ccc"></path>
</svg><style>@media (prefers-color-scheme: light) { :root { filter: none; } }
@media (prefers-color-scheme: dark) { :root { filter: none; } }
</style></svg>